<?xml version="1.0" encoding="UTF-8" standalone="no"?>
<!-- Created with Inkscape (http://www.inkscape.org/) -->

<svg
   width="128"
   height="127.99999"
   viewBox="0 0 33.866667 33.866664"
   version="1.1"
   id="svg1410"
   xmlns="http://www.w3.org/2000/svg"
   xmlns:svg="http://www.w3.org/2000/svg">
  <defs
     id="defs1407" />
  <g
     id="layer1">
    <g
       id="图层_1-2"
       data-name="图层 1"
       transform="matrix(0.94345324,0,0,0.94345324,-11.303449,-12.901358)">
      <path
         id="Shape-Copy"
         class="cls-1"
         d="m 29.850275,15.067225 c -0.265709,0 -0.531016,0.06233 -0.775087,0.184465 l -12.780471,7.407325 c 0,0 -0.866471,0.476627 -0.866471,1.152476 v 15.405273 c 0.0155,0.347205 0.192312,0.667446 0.477236,0.866472 0.467895,0.329258 13.283091,7.764406 13.283091,7.764406 0.41391,0.209957 0.902724,0.209957 1.316633,0 0.797154,-0.450563 13.058012,-7.520711 13.058012,-7.520711 0,0 0.719239,-0.311661 0.719239,-1.672022 H 44.23845 V 24.322574 C 44.29391,23.55777 43.859344,22.841146 43.155359,22.537167 41.942299,21.82666 30.625354,15.25169 30.625353,15.25169 30.381284,15.129555 30.115977,15.067225 29.850267,15.067225 Z m -0.09476,3.626662 c 0.209265,0 0.418601,0.04795 0.61093,0.143848 0,0 6.204084,3.579483 8.803497,5.087141 l -8.700265,5.190374 c -0.09746,0.07637 -0.18304,0.161737 -0.26231,0.253849 -0.804493,0.676782 -1.379433,1.59677 -1.594175,2.636649 -0.232798,1.096823 -0.104014,2.235937 0.39262,3.235735 -0.380638,0.532145 -0.641625,1.128735 -0.768317,1.760021 -0.286099,1.337147 -0.01511,2.73781 0.73447,3.866973 0.773283,1.18481 1.944002,1.975447 3.217119,2.316798 -0.648585,0.371803 -1.841922,1.060708 -1.96141,1.127091 -0.323526,0.166543 -0.707102,0.166543 -1.030628,0 0,0 -10.025089,-5.805366 -10.39767,-6.065308 -0.216252,-0.148969 -0.353008,-0.38797 -0.372313,-0.649854 0,0 0.0086,-11.524017 0,-12.061231 -0.0086,-0.537211 0.658316,-0.935857 0.658316,-0.935857 l 10.059205,-5.762381 c 0.192331,-0.0959 0.401664,-0.143848 0.610931,-0.143848 z m 7.857485,9.00996 c 1.184718,-0.07726 2.330251,0.490013 2.985268,1.504481 0.461742,0.680919 0.614741,1.518682 0.451851,2.330337 -0.0347,0.135028 -0.06864,0.254706 -0.118463,0.389236 l -0.08292,0.238619 -0.208157,-0.157387 c -0.48681,-0.379145 -1.020871,-0.669089 -1.60433,-0.869858 l -0.150618,-0.05076 0.02031,-0.150616 c 0.02208,-0.211094 -0.03061,-0.439127 -0.14554,-0.62447 -0.230374,-0.355574 -0.647849,-0.520521 -1.059399,-0.428159 -0.09168,0.02724 -0.183557,0.05361 -0.260618,0.09646 l -4.22913,2.508032 c -0.216069,0.129056 -0.357935,0.321528 -0.411236,0.561853 -0.0533,0.240325 -9.35e-4,0.499669 0.128617,0.700625 0.230373,0.355573 0.647848,0.520519 1.059397,0.428159 0.09168,-0.02724 0.183559,-0.0553 0.260619,-0.09816 l 1.619559,-0.95955 c 0.262404,-0.157792 0.554446,-0.269582 0.859703,-0.350312 1.356552,-0.303332 2.744377,0.272317 3.492967,1.43171 0.461743,0.680918 0.616435,1.518682 0.453545,2.330337 -0.161896,0.781428 -0.669974,1.47431 -1.364018,1.875101 l -4.242668,2.508032 c -0.262413,0.15779 -0.552762,0.269581 -0.85802,0.350311 -1.356554,0.303331 -2.746069,-0.272321 -3.494659,-1.431711 -0.461743,-0.680918 -0.614742,-1.516989 -0.451852,-2.328645 0.0347,-0.135027 0.06853,-0.255901 0.103232,-0.390928 l 0.08292,-0.238618 0.206464,0.157386 c 0.486806,0.379146 1.022561,0.66909 1.60602,0.869857 l 0.148924,0.05076 -0.01862,0.150618 c -0.02207,0.211092 0.03061,0.440819 0.145541,0.626162 0.230373,0.355574 0.647848,0.535752 1.059397,0.443391 0.09168,-0.02724 0.183558,-0.0553 0.260619,-0.09816 l 4.22744,-2.508031 c 0.216067,-0.129057 0.359625,-0.321528 0.412927,-0.561853 0.05331,-0.240325 9.35e-4,-0.49967 -0.128618,-0.700625 -0.230373,-0.355574 -0.64954,-0.52052 -1.061089,-0.428159 -0.09168,0.02724 -0.181866,0.0553 -0.258927,0.09815 l -1.621252,0.95955 c -0.262403,0.157791 -0.55325,0.269465 -0.85801,0.335083 -1.356553,0.30333 -2.744377,-0.272321 -3.492967,-1.431712 -0.44663,-0.680422 -0.616318,-1.517486 -0.438313,-2.328646 0.161894,-0.781427 0.668282,-1.476001 1.362324,-1.876791 l 4.244362,-2.508033 c 0.262403,-0.157791 0.552753,-0.269581 0.85801,-0.350311 0.16957,-0.03791 0.340146,-0.06173 0.509392,-0.07278 z"
         style="fill:#409eff;fill-rule:evenodd;stroke-width:0.866473" />
    </g>
  </g>
</svg>
