<?xml version="1.0" encoding="UTF-8" standalone="no"?>
<svg
   viewBox="0 0 153.71 38"
   version="1.1"
   id="svg43"
   sodipodi:docname="svelement.svg"
   xml:space="preserve"
   inkscape:version="1.2.1 (9c6d41e410, 2022-07-14)"
   xmlns:inkscape="http://www.inkscape.org/namespaces/inkscape"
   xmlns:sodipodi="http://sodipodi.sourceforge.net/DTD/sodipodi-0.dtd"
   xmlns="http://www.w3.org/2000/svg"
   xmlns:svg="http://www.w3.org/2000/svg"
   xmlns:rdf="http://www.w3.org/1999/02/22-rdf-syntax-ns#"
   xmlns:cc="http://creativecommons.org/ns#"
   xmlns:dc="http://purl.org/dc/elements/1.1/"><title
     id="title1335">Svelement-UI logo</title><sodipodi:namedview
     id="namedview45"
     pagecolor="#ffffff"
     bordercolor="#000000"
     borderopacity="0.25"
     inkscape:showpageshadow="2"
     inkscape:pageopacity="0.0"
     inkscape:pagecheckerboard="0"
     inkscape:deskcolor="#d1d1d1"
     showgrid="false"
     inkscape:zoom="8"
     inkscape:cx="66.3125"
     inkscape:cy="39.6875"
     inkscape:window-width="1920"
     inkscape:window-height="1013"
     inkscape:window-x="-9"
     inkscape:window-y="-9"
     inkscape:window-maximized="1"
     inkscape:current-layer="图层_2" /><defs
     id="defs30"><style
       id="style28">.cls-1,.cls-2{fill:#409eff;}.cls-1{fill-rule:evenodd;}</style></defs><g
     id="图层_2"
     data-name="图层 2"><g
       id="图层_1-2"
       data-name="图层 1"><path
         id="Shape-Copy"
         class="cls-1"
         d="M 16.644531 -0.001953125 C 16.337875 -0.001953125 16.031684 0.069983021 15.75 0.2109375 L 1 8.7597656 C 1 8.7597656 0 9.309845 0 10.089844 L 0 27.869141 C 0.017892632 28.269853 0.22194896 28.639444 0.55078125 28.869141 C 1.0907802 29.249139 15.880859 37.830078 15.880859 37.830078 C 16.358554 38.07239 16.922696 38.07239 17.400391 37.830078 C 18.320389 37.31008 32.470703 29.150391 32.470703 29.150391 C 32.470703 29.150391 33.300781 28.790701 33.300781 27.220703 L 33.25 27.220703 L 33.25 10.679688 C 33.313998 9.7970235 32.812473 8.9699649 32 8.6191406 C 30.600002 7.7991422 17.539063 0.2109375 17.539062 0.2109375 C 17.25738 0.069983021 16.951189 -0.001953125 16.644531 -0.001953125 z M 16.535156 4.1835938 C 16.776671 4.1835938 17.018266 4.2389379 17.240234 4.3496094 C 17.240234 4.3496094 24.400397 8.4807068 27.400391 10.220703 L 17.359375 16.210938 C 17.246894 16.299077 17.148127 16.397599 17.056641 16.503906 C 16.128172 17.284982 15.464632 18.346745 15.216797 19.546875 C 14.948124 20.812723 15.096753 22.12738 15.669922 23.28125 C 15.230626 23.895403 14.929419 24.583929 14.783203 25.3125 C 14.453015 26.855707 14.765764 28.472218 15.630859 29.775391 C 16.523308 31.142786 17.87444 32.055264 19.34375 32.449219 C 18.595216 32.878318 17.21798 33.673388 17.080078 33.75 C 16.706695 33.942208 16.264008 33.942208 15.890625 33.75 C 15.890625 33.75 4.3206242 27.05 3.890625 26.75 C 3.6410488 26.578074 3.4832175 26.302242 3.4609375 26 C 3.4609375 26 3.4709375 12.700078 3.4609375 12.080078 C 3.4509375 11.46008 4.2207031 11 4.2207031 11 L 15.830078 4.3496094 C 16.052048 4.238938 16.293641 4.1835938 16.535156 4.1835938 z M 25.603516 14.582031 C 26.970806 14.492875 28.29287 15.147558 29.048828 16.318359 C 29.581728 17.104211 29.758304 18.071077 29.570312 19.007812 C 29.530259 19.163648 29.49109 19.30177 29.433594 19.457031 L 29.337891 19.732422 L 29.097656 19.550781 C 28.53583 19.113208 27.919467 18.778582 27.246094 18.546875 L 27.072266 18.488281 L 27.095703 18.314453 C 27.121185 18.07083 27.060385 17.807656 26.927734 17.59375 C 26.661859 17.183381 26.180049 16.993015 25.705078 17.099609 C 25.599274 17.131049 25.493233 17.161481 25.404297 17.210938 L 20.523438 20.105469 C 20.274072 20.254414 20.110344 20.476546 20.048828 20.753906 C 19.987313 21.031266 20.047747 21.330577 20.197266 21.5625 C 20.463141 21.972869 20.944951 22.163235 21.419922 22.056641 C 21.525726 22.025201 21.631767 21.992816 21.720703 21.943359 L 23.589844 20.835938 C 23.892685 20.65383 24.229733 20.524812 24.582031 20.431641 C 26.147635 20.081565 27.749329 20.745925 28.613281 22.083984 C 29.146181 22.869836 29.324711 23.836702 29.136719 24.773438 C 28.949875 25.675288 28.363498 26.474945 27.5625 26.9375 L 22.666016 29.832031 C 22.363174 30.014139 22.02808 30.143157 21.675781 30.236328 C 20.110177 30.586404 18.50653 29.922043 17.642578 28.583984 C 17.109679 27.798132 16.933102 26.83322 17.121094 25.896484 C 17.161147 25.740649 17.200181 25.601148 17.240234 25.445312 L 17.335938 25.169922 L 17.574219 25.351562 C 18.136045 25.789136 18.754361 26.123762 19.427734 26.355469 L 19.599609 26.414062 L 19.578125 26.587891 C 19.552643 26.831514 19.613443 27.096641 19.746094 27.310547 C 20.011969 27.720916 20.493779 27.92886 20.96875 27.822266 C 21.074554 27.790826 21.180595 27.758441 21.269531 27.708984 L 26.148438 24.814453 C 26.397803 24.665508 26.563484 24.443376 26.625 24.166016 C 26.686516 23.888656 26.626082 23.589344 26.476562 23.357422 C 26.210687 22.947053 25.726924 22.756687 25.251953 22.863281 C 25.146149 22.894721 25.042061 22.927106 24.953125 22.976562 L 23.082031 24.083984 C 22.77919 24.266092 22.443521 24.394974 22.091797 24.470703 C 20.526193 24.820779 18.924499 24.156418 18.060547 22.818359 C 17.54509 22.033081 17.349253 21.067021 17.554688 20.130859 C 17.741531 19.229009 18.325955 18.427398 19.126953 17.964844 L 24.025391 15.070312 C 24.328232 14.888205 24.663326 14.759187 25.015625 14.666016 C 25.211325 14.622256 25.408188 14.594768 25.603516 14.582031 z " /></g><g
       id="g356"
       transform="matrix(0.47889648,0,0,0.47889648,-14.583959,11.046335)"><g
         id="g365"
         transform="matrix(0.36422648,0.0119905,-0.0119905,0.36422648,62.062226,1.7386856)" /></g><text
       xml:space="preserve"
       style="font-style:normal;font-variant:normal;font-weight:normal;font-stretch:normal;font-size:24.3434px;font-family:'Segoe UI';-inkscape-font-specification:'Segoe UI, Normal';font-variant-ligatures:normal;font-variant-caps:normal;font-variant-numeric:normal;font-variant-east-asian:normal;letter-spacing:-2.8px;fill:#409eff;fill-opacity:1;stroke-width:2.02862"
       x="39.607723"
       y="28.159277"
       id="text422"><tspan
         sodipodi:role="line"
         id="tspan420"
         x="39.607723"
         y="28.159277"
         style="font-style:normal;font-variant:normal;font-weight:normal;font-stretch:normal;font-size:24.3434px;font-family:'Segoe UI';-inkscape-font-specification:'Segoe UI, Normal';font-variant-ligatures:normal;font-variant-caps:normal;font-variant-numeric:normal;font-variant-east-asian:normal;fill:#409eff;fill-opacity:1;stroke-width:2.02862">Svelement UI</tspan></text></g><style
     type="text/css"
     id="style342">
	.st0{fill:#FF3E00;}
	.st1{fill:#FFFFFF;}
</style><metadata
     id="metadata1333"><rdf:RDF><cc:Work
         rdf:about=""><dc:title>Svelement-UI logo</dc:title></cc:Work></rdf:RDF></metadata></svg>
